; NON-PLATED HOLES START AT T1
; THROUGH (PLATED) HOLES START AT T100
M48
INCH
T1C0.114173
T2C0.118110
T100C0.039370
T101C0.038000
%
T1
X024147Y001425
X001323Y020724
X001304Y001428
T2
X021197Y001677
X024139Y020727
X021195Y017416
T100
X016737Y012901
X007149Y005916
X024611Y008961
X007192Y017338
X023650Y009929
T101
X021747Y004938
X004192Y021338
X021747Y008938
X021747Y011938
X005192Y021338
X021747Y007938
X003192Y021338
X004192Y020338
X003192Y020338
X021747Y005938
X005192Y020338
X021747Y006938
X021747Y010938
X021747Y009938
X021747Y012938
T00
M30
